<mxfile host="app.diagrams.net" modified="2021-05-21T04:37:05.782Z" agent="5.0 (Windows NT 10.0; Win64; x64) AppleWebKit/537.36 (KHTML, like Gecko) Chrome/90.0.4430.93 Safari/537.36" etag="ZN9wilia_8YaLrard1Oo" version="14.6.12" type="github">
  <diagram id="m8zz0puxF1gvySBvh5NS" name="Page-1">
    <mxGraphModel dx="1422" dy="706" grid="1" gridSize="10" guides="1" tooltips="1" connect="1" arrows="1" fold="1" page="1" pageScale="1" pageWidth="827" pageHeight="1169" math="0" shadow="0">
      <root>
        <mxCell id="0" />
        <mxCell id="1" parent="0" />
        <mxCell id="tORH18pve_F1iOog1Cyv-1" value="" style="rounded=1;whiteSpace=wrap;html=1;fillColor=none;dashed=1;" parent="1" vertex="1">
          <mxGeometry x="90" y="370" width="570" height="179" as="geometry" />
        </mxCell>
        <mxCell id="tORH18pve_F1iOog1Cyv-3" style="edgeStyle=orthogonalEdgeStyle;rounded=0;orthogonalLoop=1;jettySize=auto;html=1;exitX=1;exitY=0.5;exitDx=0;exitDy=0;entryX=0;entryY=0.5;entryDx=0;entryDy=0;" parent="1" target="tORH18pve_F1iOog1Cyv-8" edge="1">
          <mxGeometry relative="1" as="geometry">
            <mxPoint x="270" y="500" as="targetPoint" />
            <mxPoint x="190" y="412.5" as="sourcePoint" />
            <Array as="points">
              <mxPoint x="230" y="410" />
              <mxPoint x="230" y="460" />
            </Array>
          </mxGeometry>
        </mxCell>
        <mxCell id="tORH18pve_F1iOog1Cyv-4" style="edgeStyle=orthogonalEdgeStyle;rounded=0;orthogonalLoop=1;jettySize=auto;html=1;entryX=0;entryY=0.5;entryDx=0;entryDy=0;" parent="1" source="tORH18pve_F1iOog1Cyv-5" target="tORH18pve_F1iOog1Cyv-8" edge="1">
          <mxGeometry relative="1" as="geometry">
            <Array as="points">
              <mxPoint x="230" y="510" />
              <mxPoint x="230" y="460" />
            </Array>
          </mxGeometry>
        </mxCell>
        <mxCell id="tORH18pve_F1iOog1Cyv-5" value="&lt;font style=&quot;font-size: 16px&quot;&gt;查询图像&lt;/font&gt;" style="rounded=0;whiteSpace=wrap;html=1;" parent="1" vertex="1">
          <mxGeometry x="107" y="490" width="100" height="40" as="geometry" />
        </mxCell>
        <mxCell id="tORH18pve_F1iOog1Cyv-7" style="edgeStyle=orthogonalEdgeStyle;rounded=0;orthogonalLoop=1;jettySize=auto;html=1;entryX=0;entryY=0.5;entryDx=0;entryDy=0;" parent="1" source="tORH18pve_F1iOog1Cyv-8" target="tORH18pve_F1iOog1Cyv-9" edge="1">
          <mxGeometry relative="1" as="geometry">
            <mxPoint x="630" y="480" as="targetPoint" />
          </mxGeometry>
        </mxCell>
        <mxCell id="tORH18pve_F1iOog1Cyv-8" value="&lt;font style=&quot;font-size: 17px&quot;&gt;2D-3D匹配&lt;/font&gt;" style="rounded=0;whiteSpace=wrap;html=1;" parent="1" vertex="1">
          <mxGeometry x="353" y="440" width="110" height="40" as="geometry" />
        </mxCell>
        <mxCell id="tORH18pve_F1iOog1Cyv-9" value="&lt;font style=&quot;font-size: 17px&quot;&gt;相机姿态h&lt;/font&gt;" style="rounded=0;whiteSpace=wrap;html=1;" parent="1" vertex="1">
          <mxGeometry x="532" y="440" width="110" height="40" as="geometry" />
        </mxCell>
        <mxCell id="tORH18pve_F1iOog1Cyv-10" value="&lt;font style=&quot;font-size: 17px&quot;&gt;特征检测&lt;/font&gt;" style="text;html=1;align=center;verticalAlign=middle;resizable=0;points=[];autosize=1;strokeColor=none;" parent="1" vertex="1">
          <mxGeometry x="252" y="436" width="80" height="20" as="geometry" />
        </mxCell>
        <mxCell id="tORH18pve_F1iOog1Cyv-11" value="&lt;font style=&quot;font-size: 17px&quot;&gt;计算&lt;/font&gt;" style="text;html=1;align=center;verticalAlign=middle;resizable=0;points=[];autosize=1;strokeColor=none;" parent="1" vertex="1">
          <mxGeometry x="475" y="436" width="50" height="20" as="geometry" />
        </mxCell>
        <mxCell id="tORH18pve_F1iOog1Cyv-12" value="&lt;font style=&quot;font-size: 16px&quot;&gt;SFM模型&lt;/font&gt;" style="rounded=0;whiteSpace=wrap;html=1;" parent="1" vertex="1">
          <mxGeometry x="107" y="391" width="100" height="40" as="geometry" />
        </mxCell>
        <mxCell id="tORH18pve_F1iOog1Cyv-14" value="&lt;font style=&quot;font-size: 17px&quot;&gt;匹配&lt;/font&gt;" style="text;html=1;strokeColor=none;fillColor=none;align=center;verticalAlign=middle;whiteSpace=wrap;rounded=0;" parent="1" vertex="1">
          <mxGeometry x="272" y="467" width="40" height="20" as="geometry" />
        </mxCell>
      </root>
    </mxGraphModel>
  </diagram>
</mxfile>
